<?xml version="1.0" encoding="UTF-8"?>
<svg xmlns="http://www.w3.org/2000/svg" xmlns:se="https://standardebooks.org/vocab/1.0" version="1.1" viewBox="0 0 1400 1050" se:generated-from="359079718b6baa9096f9a3057f5c9677cc3cc7d1">
	<path d="m 308.17032,52.807016 -16.28071,0 L 260.73172,130 l 18.90058,0 5.70761,-15.4386 29.38011,0 5.70761,15.4386 18.90058,0 -31.15789,-77.192984 z m 0.5614,46.31579 -17.40351,0 8.60819,-22.45614 0.18713,0 8.60819,22.45614 z"/>
	<path d="m 395.42324,82.093566 0.18713,0 L 426.30043,130 l 17.59065,0 0,-77.192984 -17.59065,0 0,47.906434 -0.18713,0 -30.69006,-47.906434 -17.59065,0 0,77.192984 17.59065,0 0,-47.906434 z"/>
	<path d="m 456.67325,91.356724 c 0,22.549706 16.09357,40.046786 38.92398,40.046786 22.17544,0 38.83041,-17.49708 38.83041,-40.046786 0,-22.549708 -17.40351,-39.953217 -38.83041,-39.953217 -21.23977,0 -38.92398,17.403509 -38.92398,39.953217 z m 18.99415,0 c 0,-11.508772 6.36257,-23.017544 19.92983,-23.017544 13.66082,0 19.83625,11.508772 19.83625,23.017544 0,11.508776 -5.80117,23.017546 -19.83625,23.017546 -14.40936,0 -19.92983,-11.50877 -19.92983,-23.017546 z"/>
	<path d="m 568.4057,130 13.84795,0 32.37427,-77.192984 -19.83625,0 -19.46199,50.713454 -19.46199,-50.713454 -19.83626,0 L 568.4057,130 Z"/>
	<path d="m 666.71126,52.807016 -44.16375,0 0,77.192984 44.16375,0 0,-15.4386 -26.5731,0 0,-15.532161 25.45029,0 0,-15.438597 -25.45029,0 0,-15.345029 26.5731,0 0,-15.438597 z"/>
	<path d="m 699.41446,52.807016 -17.59064,0 0,77.192984 44.16374,0 0,-15.4386 -26.5731,0 0,-61.754384 z"/>
	<path d="m 821.41008,130 19.46199,0 21.9883,-77.192984 -19.46199,0 -13.19298,52.959064 -0.46784,0 -14.03509,-52.959064 -13.28655,0 -14.03508,52.959064 -0.46784,0 -13.19298,-52.959064 -19.55556,0 L 777.15277,130 796.70832,130 809.0592,86.678362 821.41008,130 Z"/>
	<path d="m 889.67029,52.807016 -17.59064,0 0,77.192984 17.59064,0 0,-77.192984 z"/>
	<path d="m 896.51976,68.245613 18.33918,0 0,61.754387 17.59064,0 0,-61.754387 18.33918,0 0,-15.438597 -54.269,0 0,15.438597 z"/>
	<path d="m 979.71418,99.029239 24.88892,0 0,30.970761 17.5906,0 0,-77.192984 -17.5906,0 0,30.783626 -24.88892,0 0,-30.783626 -17.59065,0 0,77.192984 17.59065,0 0,-30.970761 z"/>
	<path d="m 1108.185,52.807016 -16.2807,0 L 1060.7464,130 l 18.9006,0 5.7076,-15.4386 29.3801,0 5.7076,15.4386 18.9006,0 -31.1579,-77.192984 z m 0.5614,46.31579 -17.4035,0 8.6081,-22.45614 0.1872,0 8.6082,22.45614 z"/>
	<path d="m 143.1206,230 13.84796,0 32.37427,-77.19298 -19.83626,0 -19.46199,50.71345 -19.46199,-50.71345 -19.83625,0 L 143.1206,230 Z"/>
	<path d="m 241.42616,152.80702 -44.16374,0 0,77.19298 44.16374,0 0,-15.4386 -26.5731,0 0,-15.53216 25.4503,0 0,-15.4386 -25.4503,0 0,-15.34503 26.5731,0 0,-15.43859 z"/>
	<path d="m 256.53874,152.80702 0,77.19298 17.59064,0 0,-30.50292 23.57895,30.50292 22.36258,0 -26.5731,-31.90643 c 9.45029,-2.99416 15.81286,-10.76024 15.81286,-22.36258 0,-15.15789 -10.8538,-22.92397 -25.16959,-22.92397 l -27.60234,0 z m 17.59064,34.24561 0,-20.21053 2.05848,0 c 6.64328,0 14.5965,0.46784 14.5965,10.10527 0,9.63742 -7.95322,10.10526 -14.5965,10.10526 l -2.05848,0 z"/>
	<path d="m 311.77997,152.80702 28.44444,42.5731 0,34.61988 17.59064,0 0,-34.61988 28.44445,-42.5731 -21.1462,0 -16.09357,24.70175 -16.09357,-24.70175 -21.14619,0 z"/>
	<path d="m 440.78143,230 13.84796,0 32.37427,-77.19298 -19.83626,0 -19.46199,50.71345 -19.46199,-50.71345 -19.83626,0 L 440.78143,230 Z"/>
	<path d="m 539.08699,152.80702 -44.16374,0 0,77.19298 44.16374,0 0,-15.4386 -26.5731,0 0,-15.53216 25.45029,0 0,-15.4386 -25.45029,0 0,-15.34503 26.5731,0 0,-15.43859 z"/>
	<path d="m 554.19955,152.80702 0,77.19298 17.59065,0 0,-30.50292 23.57894,30.50292 22.36258,0 -26.5731,-31.90643 c 9.45029,-2.99416 15.81286,-10.76024 15.81286,-22.36258 0,-15.15789 -10.8538,-22.92397 -25.16959,-22.92397 l -27.60234,0 z m 17.59065,34.24561 0,-20.21053 2.05848,0 c 6.64327,0 14.59649,0.46784 14.59649,10.10527 0,9.63742 -7.95322,10.10526 -14.59649,10.10526 l -2.05848,0 z"/>
	<path d="m 609.44079,152.80702 28.44445,42.5731 0,34.61988 17.59064,0 0,-34.61988 28.44445,-42.5731 -21.1462,0 -16.09357,24.70175 -16.09357,-24.70175 -21.1462,0 z"/>
	<path d="m 739.93351,152.80702 -17.59065,0 0,77.19298 44.16375,0 0,-15.4386 -26.5731,0 0,-61.75438 z"/>
	<path d="m 776.69521,191.35672 c 0,22.54971 16.09356,40.04679 38.92397,40.04679 22.17544,0 38.83041,-17.49708 38.83041,-40.04679 0,-22.5497 -17.40351,-39.95321 -38.83041,-39.95321 -21.23976,0 -38.92397,17.40351 -38.92397,39.95321 z m 18.99415,0 c 0,-11.50877 6.36257,-23.01754 19.92982,-23.01754 13.66082,0 19.83626,11.50877 19.83626,23.01754 0,11.50878 -5.80117,23.01755 -19.83626,23.01755 -14.40935,0 -19.92982,-11.50877 -19.92982,-23.01755 z"/>
	<path d="m 884.80192,182.09357 0.18713,0 30.69006,47.90643 17.59064,0 0,-77.19298 -17.59064,0 0,47.90643 -0.18714,0 -30.69005,-47.90643 -17.59065,0 0,77.19298 17.59065,0 0,-47.90643 z"/>
	<path d="m 1019.3151,186.77193 -35.64917,0 0,13.56725 17.77777,0 c 0,9.45029 -8.32748,14.87719 -16.74853,14.87719 -10.8538,0 -19.64912,-10.66666 -19.64912,-23.76608 0,-13.38012 8.79532,-24.14035 19.64912,-24.14035 6.83041,0 12.72515,2.71345 17.21633,9.91813 l 11.5088,-12.63158 c -6.7368,-8.14035 -16.18712,-13.19298 -29.75437,-13.19298 -21.7076,0 -37.61403,17.87134 -37.61403,40.04678 0,22.08187 16.8421,39.95322 37.61403,39.95322 15.1579,0 31.43857,-8.32749 35.64917,-27.88304 l 0,-16.74854 z"/>
	<path d="m 1101.7888,152.80702 -16.2807,0 -31.1579,77.19298 18.9005,0 5.7076,-15.4386 29.3802,0 5.7076,15.4386 18.9005,0 -31.1578,-77.19298 z m 0.5614,46.31579 -17.4036,0 8.6082,-22.45614 0.1872,0 8.6082,22.45614 z"/>
	<path d="m 1158.4569,182.09357 0.1871,0 30.6901,47.90643 17.5906,0 0,-77.19298 -17.5906,0 0,47.90643 -0.1872,0 -30.69,-47.90643 -17.5907,0 0,77.19298 17.5907,0 0,-47.90643 z"/>
	<path d="m 1223.1689,152.80702 0,77.19298 22.3625,0 c 21.2398,0 38.924,-16.09357 38.924,-38.64328 0,-22.45614 -17.7778,-38.5497 -38.924,-38.5497 l -22.3625,0 z m 17.5906,61.47368 0,-45.75439 2.7134,0 c 13.0995,0 21.9884,10.0117 21.9884,22.92398 -0.094,12.91228 -8.9825,22.83041 -21.9884,22.83041 l -2.7134,0 z"/>
	<path d="m 314.74415,252.80702 0,77.19298 22.36257,0 c 21.23977,0 38.92398,-16.09357 38.92398,-38.64328 0,-22.45614 -17.77778,-38.5497 -38.92398,-38.5497 l -22.36257,0 z m 17.59064,61.47368 0,-45.75439 2.71345,0 c 13.09942,0 21.9883,10.0117 21.9883,22.92398 -0.0936,12.91228 -8.98245,22.83041 -21.9883,22.83041 l -2.71345,0 z"/>
	<path d="m 432.98684,252.80702 -44.16375,0 0,77.19298 44.16375,0 0,-15.4386 -26.5731,0 0,-15.53216 25.45029,0 0,-15.4386 -25.45029,0 0,-15.34503 26.5731,0 0,-15.43859 z"/>
	<path d="m 443.23392,268.24561 18.33918,0 0,61.75439 17.59064,0 0,-61.75439 18.33919,0 0,-15.43859 -54.26901,0 0,15.43859 z"/>
	<path d="m 543.47368,252.80702 -16.2807,0 -31.1579,77.19298 18.90059,0 5.7076,-15.4386 29.38012,0 5.7076,15.4386 18.90059,0 -31.1579,-77.19298 z m 0.5614,46.31579 -17.4035,0 8.60818,-22.45614 0.18714,0 8.60818,22.45614 z"/>
	<path d="m 600.1418,252.80702 -17.59065,0 0,77.19298 17.59065,0 0,-77.19298 z"/>
	<path d="m 634.01609,252.80702 -17.59064,0 0,77.19298 44.16374,0 0,-15.4386 -26.5731,0 0,-61.75438 z"/>
	<path d="m 718.40349,252.80702 -44.16374,0 0,77.19298 44.16374,0 0,-15.4386 -26.5731,0 0,-15.53216 25.4503,0 0,-15.4386 -25.4503,0 0,-15.34503 26.5731,0 0,-15.43859 z"/>
	<path d="m 733.51609,252.80702 0,77.19298 22.36257,0 c 21.23977,0 38.92398,-16.09357 38.92398,-38.64328 0,-22.45614 -17.77778,-38.5497 -38.92398,-38.5497 l -22.36257,0 z m 17.59064,61.47368 0,-45.75439 2.71345,0 c 13.09942,0 21.98831,10.0117 21.98831,22.92398 -0.0936,12.91228 -8.98246,22.83041 -21.98831,22.83041 l -2.71345,0 z"/>
	<path d="m 828.74559,268.24561 18.33918,0 0,61.75439 17.59065,0 0,-61.75439 18.33918,0 0,-15.43859 -54.26901,0 0,15.43859 z"/>
	<path d="m 911.94008,252.80702 -17.59065,0 0,77.19298 17.59065,0 0,-77.19298 z"/>
	<path d="m 918.78948,268.24561 18.33918,0 0,61.75439 17.59064,0 0,-61.75439 18.33918,0 0,-15.43859 -54.269,0 0,15.43859 z"/>
	<path d="m 1001.9839,252.80702 -17.59065,0 0,77.19298 44.16375,0 0,-15.4386 -26.5731,0 0,-61.75438 z"/>
	<path d="m 1086.3713,252.80702 -44.1637,0 0,77.19298 44.1637,0 0,-15.4386 -26.5731,0 0,-15.53216 25.4503,0 0,-15.4386 -25.4503,0 0,-15.34503 26.5731,0 0,-15.43859 z"/>
	<path d="m 536.63213,432.10526 -12.21053,0 L 501.05318,490 l 14.17544,0 4.2807,-11.57895 22.03509,0 4.2807,11.57895 14.17544,0 -23.36842,-57.89474 z m 0.42105,34.73685 -13.05263,0 6.45614,-16.84211 0.14035,0 6.45614,16.84211 z"/>
	<path d="m 611.68147,432.10526 -13.19298,0 0,33.47369 c 0,9.68421 -2.94737,12.49123 -9.40351,12.49123 -6.45614,0 -9.40351,-2.80702 -9.40351,-12.49123 l 0,-33.47369 -13.19298,0 0,37.33334 c 0,14.31579 7.85965,21.61403 22.59649,21.61403 14.73684,0 22.59649,-7.29824 22.59649,-21.61403 l 0,-37.33334 z"/>
	<path d="m 617.33498,443.68421 13.75438,0 0,46.31579 13.19298,0 0,-46.31579 13.75439,0 0,-11.57895 -40.70175,0 0,11.57895 z"/>
	<path d="m 680.98081,466.77193 18.66666,0 0,23.22807 13.19299,0 0,-57.89474 -13.19299,0 0,23.08772 -18.66666,0 0,-23.08772 -13.19299,0 0,57.89474 13.19299,0 0,-23.22807 z"/>
	<path d="m 723.64528,461.01754 c 0,16.91228 12.07018,30.03509 29.19298,30.03509 16.63158,0 29.12281,-13.12281 29.12281,-30.03509 0,-16.91228 -13.05263,-29.96491 -29.12281,-29.96491 -15.92982,0 -29.19298,13.05263 -29.19298,29.96491 z m 14.24562,0 c 0,-8.63157 4.77193,-17.26315 14.94736,-17.26315 10.24562,0 14.8772,8.63158 14.8772,17.26315 0,8.63158 -4.35088,17.26316 -14.8772,17.26316 -10.80701,0 -14.94736,-8.63158 -14.94736,-17.26316 z"/>
	<path d="m 792.78233,432.10526 0,57.89474 13.19298,0 0,-22.87719 17.68421,22.87719 16.77193,0 -19.92982,-23.92982 c 7.08772,-2.24562 11.85965,-8.07018 11.85965,-16.77193 0,-11.36842 -8.14035,-17.19299 -18.87719,-17.19299 l -20.70176,0 z m 13.19298,25.68421 0,-15.15789 1.54386,0 c 4.98246,0 10.94737,0.35088 10.94737,7.57895 0,7.22807 -5.96491,7.57894 -10.94737,7.57894 l -1.54386,0 z"/>
	<path d="m 870.09704,455.82456 9.54385,-6.17544 0,40.35088 13.19299,0 0,-57.89474 -6.24562,0 -16.49122,10.66667 0,13.05263 z"/>
	<path d="m 524.63926,512.10526 -12.21053,0 L 489.06031,570 l 14.17544,0 4.2807,-11.57895 22.03509,0 4.2807,11.57895 14.17544,0 -23.36842,-57.89474 z m 0.42105,34.73685 -13.05263,0 6.45614,-16.84211 0.14035,0 6.45614,16.84211 z"/>
	<path d="m 599.6886,512.10526 -13.19298,0 0,33.47369 c 0,9.68421 -2.94737,12.49123 -9.40351,12.49123 -6.45614,0 -9.40351,-2.80702 -9.40351,-12.49123 l 0,-33.47369 -13.19298,0 0,37.33334 c 0,14.31579 7.85965,21.61403 22.59649,21.61403 14.73684,0 22.59649,-7.29824 22.59649,-21.61403 l 0,-37.33334 z"/>
	<path d="m 605.3421,523.68421 13.75439,0 0,46.31579 13.19298,0 0,-46.31579 13.75439,0 0,-11.57895 -40.70176,0 0,11.57895 z"/>
	<path d="m 668.98793,546.77193 18.66667,0 0,23.22807 13.19298,0 0,-57.89474 -13.19298,0 0,23.08772 -18.66667,0 0,-23.08772 -13.19298,0 0,57.89474 13.19298,0 0,-23.22807 z"/>
	<path d="m 711.65241,541.01754 c 0,16.91228 12.07017,30.03509 29.19298,30.03509 16.63158,0 29.12281,-13.12281 29.12281,-30.03509 0,-16.91228 -13.05263,-29.96491 -29.12281,-29.96491 -15.92982,0 -29.19298,13.05263 -29.19298,29.96491 z m 14.24561,0 c 0,-8.63157 4.77193,-17.26315 14.94737,-17.26315 10.24562,0 14.87719,8.63158 14.87719,17.26315 0,8.63158 -4.35087,17.26316 -14.87719,17.26316 -10.80702,0 -14.94737,-8.63158 -14.94737,-17.26316 z"/>
	<path d="m 780.78946,512.10526 0,57.89474 13.19298,0 0,-22.87719 17.68421,22.87719 16.77193,0 -19.92982,-23.92982 c 7.08772,-2.24562 11.85965,-8.07018 11.85965,-16.77193 0,-11.36842 -8.14036,-17.19299 -18.8772,-17.19299 l -20.70175,0 z m 13.19298,25.68421 0,-15.15789 1.54386,0 c 4.98246,0 10.94737,0.35088 10.94737,7.57895 0,7.22807 -5.96491,7.57894 -10.94737,7.57894 l -1.54386,0 z"/>
	<path d="m 881.54276,522.21053 c 7.7193,0 8.21053,7.08772 8.21053,9.19298 0,10.66667 -29.82457,35.29824 -29.82457,35.29824 l 0,3.29825 45.12281,0 0,-11.57895 -21.47368,0 c 0,0 20.42105,-13.47368 20.42105,-27.01754 0,-7.29825 -2.59649,-20.35088 -22.45614,-20.35088 -15.7193,0 -21.33333,16.84211 -21.33333,16.84211 l 11.01754,5.33333 c 0,0 4,-11.01754 10.31579,-11.01754 z"/>
	<path d="m 594.75525,743.42189 c 0,1.19023 2.50797,0.25505 2.50797,1.14772 0,1.14771 -1.78533,8.034 -1.78533,11.94474 0,3.31562 1.57279,3.99575 2.72051,3.99575 2.63549,0 6.24867,-2.89055 6.24867,-3.99575 0,-0.59512 -0.34007,-0.59512 -0.46759,-0.59512 -0.68013,0 -1.65781,1.87036 -3.99575,1.87036 -0.17003,0 -1.74283,-0.085 -1.74283,-2.33794 0,-0.68013 0.97769,-6.20617 1.36026,-8.84166 0.25505,-1.74283 0.12752,-2.50797 1.36025,-2.50797 0.93518,0 2.76302,0.21254 3.44315,0.21254 0.76514,0 1.02019,-0.25505 1.02019,-1.23273 0,-0.5101 -0.21254,-0.80765 -1.10521,-0.80765 -0.46758,0 -0.80765,0.0425 -2.46546,0.0425 -1.40276,0 -1.48778,-0.0425 -1.48778,-0.29755 0,-0.63762 0.76515,-2.63549 0.76515,-3.1881 0,-0.38257 -0.21254,-0.51009 -0.42508,-0.51009 -0.68013,0 -0.76515,0.5526 -2.46547,2.33793 -1.87035,1.95537 -3.48565,1.91286 -3.48565,2.76302 z"/>
	<path d="m 606.86272,747.41764 c 0,0.59511 0.34006,0.72264 0.51009,0.72264 0.21254,0 0.34006,-0.12753 0.46759,-0.25505 0.25505,-0.29756 0.59511,-2.84804 2.33794,-2.84804 0.76514,0 1.44527,0.76515 1.44527,2.89055 0,3.18809 -1.82784,9.43677 -1.82784,11.13708 0,1.0202 0.85015,1.10521 1.27523,1.10521 l 0.21254,0 c 1.53029,0 1.44528,0 2.38045,-7.22635 l 0.21254,-1.40277 c 0.21254,-1.78533 1.27524,-7.35387 3.1881,-7.35387 1.53028,0 1.36025,1.78533 2.29543,1.78533 0.76514,0 0.85016,-1.31775 0.93517,-1.6153 0.12753,-0.46759 0.46759,-1.02019 0.46759,-1.5728 0,-0.59511 -0.46759,-1.31774 -1.57279,-1.31774 -3.14559,0 -5.27099,4.37832 -5.56855,4.37832 -0.085,0 -0.12752,-0.0425 -1.19022,-2.80553 -0.25505,-0.68013 -0.68013,-1.48778 -1.5728,-1.48778 -0.38257,0 -3.99574,1.02019 -3.99574,5.8661 z"/>
	<path d="m 620.45398,755.15409 c 0,2.76302 0.51009,5.48353 4.54835,5.48353 4.03826,0 7.56642,-5.10096 7.77896,-5.10096 0.29755,0 -0.085,4.7609 2.63549,4.7609 1.14772,0 3.06057,-1.95537 4.12327,-3.48566 0.55261,-0.76514 0.76515,-1.40276 0.76515,-1.82784 0,-0.17003 -0.0425,-0.46759 -0.38257,-0.46759 -0.80766,0 -1.70032,2.76302 -3.10309,2.76302 -0.80765,0 -1.44527,-1.40276 -1.44527,-2.50797 0,-1.6153 0.42508,-3.57067 0.76515,-5.44102 0.34006,-1.91286 0.59511,-3.86823 0.97768,-5.44102 0.29756,-1.23273 0.85016,-2.25292 0.85016,-2.93305 0,-0.46759 -0.21254,-0.63762 -0.46759,-0.63762 -0.85016,0 -1.36025,2.08289 -2.21041,2.08289 -1.40277,0 -2.29543,-0.46759 -3.61318,-0.46759 -1.10521,0 -1.95537,0.21254 -3.10308,0.76515 -2.25292,1.0627 -4.20829,3.10308 -5.73858,5.52603 -1.31775,2.1254 -2.38044,4.54836 -2.38044,6.9288 z m 2.97555,-0.25505 c 0,-0.76514 0.085,-1.53028 0.21254,-2.29543 0.38258,-2.21041 1.40277,-4.12327 2.6355,-6.16365 1.27524,-2.16791 3.52816,-3.44315 5.27099,-3.44315 0.89266,0 2.80552,0.29756 2.80552,1.48778 0,0.12753 -1.14771,7.94899 -2.1679,9.98937 -0.38258,0.76515 -2.38045,3.82572 -5.44102,3.82572 -1.78534,0 -3.31563,-1.27524 -3.31563,-3.40064 z"/>
	<path d="m 641.69999,746.35494 c 0,0.46759 0.085,0.80765 0.38257,0.80765 0.93518,0 1.40277,-2.38044 2.72051,-2.38044 0.42508,0 0.97769,0.85016 0.97769,2.33794 0,3.27311 -1.87036,9.86184 -1.87036,11.64718 0,1.23273 0.34007,1.31775 1.48778,1.31775 1.10521,0 1.44527,-0.17004 1.5728,-1.10521 0.085,-0.59511 -0.21254,-0.085 0.85016,-5.82359 1.02019,-5.48353 0.51009,-5.10096 2.33794,-7.69395 0.97768,-1.40276 1.78533,-1.87035 2.76301,-1.87035 2.76302,0 2.97556,2.80553 2.97556,3.48566 0,1.57279 -0.89267,7.26886 -0.89267,10.49947 0,1.48777 0.72264,2.678 1.5728,2.678 1.87035,0 5.61105,-2.97556 5.61105,-4.63337 0,-0.25505 -0.085,-0.5101 -0.38257,-0.5101 -0.63762,0 -0.80765,0.5101 -1.31775,1.14772 0,0 -0.97768,0.93517 -1.70032,0.93517 -0.46758,0 -0.80765,-0.34006 -0.80765,-1.53028 0,-1.44527 0.72264,-5.95112 0.72264,-8.92668 0,-2.678 -0.59511,-5.31349 -3.57067,-5.31349 -1.78534,0 -4.03826,1.53028 -5.18597,2.42295 -1.5728,1.19022 -1.87035,2.1254 -2.1254,2.1254 -0.38257,0 0.51009,-4.46334 -1.95537,-4.46334 -1.6153,0 -4.16578,3.1881 -4.16578,4.84591 z"/>
	<path d="m 663.65071,757.70457 c 0,2.25292 3.06057,2.80553 4.71838,2.80553 5.44102,0 6.63125,-4.03826 6.63125,-5.56855 0,-2.84803 -1.61531,-4.03826 -2.93305,-5.52603 -1.02019,-1.10521 -3.35813,-2.84804 -3.35813,-4.46334 0,-1.27524 0.63762,-2.25292 2.25292,-2.25292 1.65781,0 1.82784,2.38044 3.35813,2.38044 0.21254,0 1.6153,-0.12752 1.6153,-1.44527 0,-1.65781 -1.65781,-2.21041 -3.95324,-2.21041 -3.31562,0 -5.78108,1.95536 -5.78108,4.8034 0,2.55048 1.6153,3.65568 3.31562,5.39851 1.53029,1.53029 2.93305,2.76302 2.93305,4.76089 0,0.5101 -0.29756,2.72051 -3.40064,2.72051 -2.59299,0 -1.87035,-2.93305 -4.03826,-2.93305 -0.51009,0 -1.36025,0.21254 -1.36025,1.53029 z"/>
	<path d="m 678.75033,756.34431 c 0,3.99575 1.23273,3.99575 2.08289,3.99575 0.80765,0 2.59299,-0.85016 3.6982,-2.12539 1.02019,-1.19023 2.12539,-2.6355 2.12539,-3.06058 0,-0.42508 -0.21254,-0.68013 -0.51009,-0.68013 -1.10521,0 -1.53029,3.01807 -3.86823,3.01807 -0.5526,0 -0.68012,-0.21254 -0.68012,-1.65781 0,-1.44527 0.51009,-4.12327 1.23273,-9.13921 1.36025,-9.13922 0.63762,-7.56642 2.21041,-15.81297 0.12752,-0.80765 0.42508,-1.36025 0.42508,-1.95537 0,-0.42507 -0.21254,-0.68012 -0.89267,-0.68012 -1.1052,0 -2.04038,0.42508 -5.14346,0.63762 -0.5526,0.0425 -0.63762,0.38257 -0.63762,0.59511 0,0.46759 0.38257,0.59511 1.23273,0.59511 0.5101,0 0.59511,-0.0425 1.23273,-0.0425 0.63762,0 1.0627,0.34007 1.0627,0.85016 0,0.5101 -0.63762,4.33581 -1.36025,8.92667 -0.42508,2.72051 -0.63762,5.73858 -1.0202,8.41658 -0.085,0.68013 -1.19022,5.69607 -1.19022,8.11902 z"/>
	<path d="m 689.28036,755.15409 c 0,2.76302 0.51009,5.48353 4.54835,5.48353 4.03826,0 7.56642,-5.10096 7.77896,-5.10096 0.29755,0 -0.085,4.7609 2.63549,4.7609 1.14772,0 3.06058,-1.95537 4.12328,-3.48566 0.5526,-0.76514 0.76514,-1.40276 0.76514,-1.82784 0,-0.17003 -0.0425,-0.46759 -0.38257,-0.46759 -0.80765,0 -1.70032,2.76302 -3.10308,2.76302 -0.80766,0 -1.44528,-1.40276 -1.44528,-2.50797 0,-1.6153 0.42508,-3.57067 0.76515,-5.44102 0.34006,-1.91286 0.59511,-3.86823 0.97768,-5.44102 0.29756,-1.23273 0.85016,-2.25292 0.85016,-2.93305 0,-0.46759 -0.21254,-0.63762 -0.46759,-0.63762 -0.85016,0 -1.36025,2.08289 -2.21041,2.08289 -1.40276,0 -2.29543,-0.46759 -3.61318,-0.46759 -1.10521,0 -1.95537,0.21254 -3.10308,0.76515 -2.25292,1.0627 -4.20829,3.10308 -5.73858,5.52603 -1.31774,2.1254 -2.38044,4.54836 -2.38044,6.9288 z m 2.97556,-0.25505 c 0,-0.76514 0.085,-1.53028 0.21253,-2.29543 0.38258,-2.21041 1.40277,-4.12327 2.6355,-6.16365 1.27524,-2.16791 3.52816,-3.44315 5.27099,-3.44315 0.89266,0 2.80552,0.29756 2.80552,1.48778 0,0.12753 -1.14771,7.94899 -2.1679,9.98937 -0.38257,0.76515 -2.38045,3.82572 -5.44102,3.82572 -1.78534,0 -3.31562,-1.27524 -3.31562,-3.40064 z"/>
	<path d="m 711.15402,743.42189 c 0,1.19023 2.50797,0.25505 2.50797,1.14772 0,1.14771 -1.78533,8.034 -1.78533,11.94474 0,3.31562 1.57279,3.99575 2.72051,3.99575 2.63549,0 6.24867,-2.89055 6.24867,-3.99575 0,-0.59512 -0.34006,-0.59512 -0.46759,-0.59512 -0.68012,0 -1.65781,1.87036 -3.99575,1.87036 -0.17003,0 -1.74282,-0.085 -1.74282,-2.33794 0,-0.68013 0.97768,-6.20617 1.36025,-8.84166 0.25505,-1.74283 0.12753,-2.50797 1.36026,-2.50797 0.93517,0 2.76302,0.21254 3.44314,0.21254 0.76515,0 1.02019,-0.25505 1.02019,-1.23273 0,-0.5101 -0.21254,-0.80765 -1.1052,-0.80765 -0.46759,0 -0.80765,0.0425 -2.46547,0.0425 -1.40276,0 -1.48777,-0.0425 -1.48777,-0.29755 0,-0.63762 0.76514,-2.63549 0.76514,-3.1881 0,-0.38257 -0.21254,-0.51009 -0.42508,-0.51009 -0.68013,0 -0.76514,0.5526 -2.46546,2.33793 -1.87035,1.95537 -3.48566,1.91286 -3.48566,2.76302 z"/>
	<path d="m 723.40296,753.75133 c 0,3.78321 1.31775,6.75877 6.71626,6.75877 3.69819,0 7.39639,-2.97556 7.39639,-3.95325 0,-0.25504 -0.17003,-0.42508 -0.5101,-0.42508 -0.46759,0 -2.1679,1.82785 -4.59086,1.82785 -4.20829,0 -6.12115,-2.1254 -6.12115,-5.3135 0,-1.10521 0.12753,-1.74283 0.72264,-1.74283 3.99575,-0.0425 6.29118,-0.97768 6.67375,-1.14771 0.80765,-0.34006 4.12327,-2.08289 4.12327,-5.14346 0,-1.87036 -1.70032,-3.14559 -3.69819,-3.14559 -2.38045,0 -4.33581,0.76514 -5.90861,2.25292 -2.93305,2.72051 -4.8034,6.37619 -4.8034,10.03188 z m 3.48566,-4.42083 c 0,-0.5526 0.97768,-3.27311 2.25292,-4.59086 1.1052,-1.14772 2.42295,-1.99788 3.48565,-1.99788 0.72264,0 2.25292,0.38258 2.25292,1.99788 0,2.678 -3.48565,5.44102 -7.60892,5.44102 -0.29756,0 -0.38257,-0.5526 -0.38257,-0.85016 z"/>
	<path d="m 739.86816,754.6865 c 0,3.1881 1.48777,5.65356 5.10095,5.65356 4.20829,0 6.3762,-4.76089 6.75877,-4.76089 0.59511,0 -0.38257,4.76089 2.59299,4.76089 2.76301,0 5.44102,-4.2933 5.44102,-5.18597 0,-0.17003 -0.12753,-0.38257 -0.46759,-0.38257 -0.68013,0 -1.65781,2.63549 -3.52816,2.63549 -0.97769,0 -1.10521,-0.89266 -1.10521,-1.82784 0,-1.27524 0.42508,-3.95324 0.89267,-7.18385 2.38044,-17.38575 2.80552,-18.74601 2.80552,-19.85122 0,-0.38257 -0.29755,-0.72263 -0.68013,-0.72263 -1.14771,0 -0.89266,0.085 -3.27311,0.68013 -1.19022,0.29755 -2.678,0.12752 -2.678,0.85015 0,0.29756 0.25505,0.46759 0.68013,0.46759 0.0425,0 1.02019,-0.0425 1.48778,-0.0425 0.63762,0 1.23273,0.42508 1.23273,1.0627 0,0.29756 -1.40277,11.47715 -1.53029,11.47715 -1.19022,0 -2.04038,-0.5526 -3.14559,-0.5526 -5.05845,0 -10.58448,6.33369 -10.58448,12.92242 z m 2.97555,-1.19022 c 0,-4.46334 3.48566,-10.83953 7.39639,-10.83953 1.14772,0 2.84803,0.5526 2.84803,1.70032 0,1.70032 -0.63762,9.18172 -2.33793,11.30712 -1.10521,1.40276 -2.76302,2.21041 -4.29331,2.21041 -2.59299,0 -3.61318,-1.91286 -3.61318,-4.37832 z"/>
	<path d="m 771.07033,756.98193 c 0,2.46547 2.678,3.57067 5.18597,3.57067 6.58874,0 11.60468,-7.60892 11.60468,-13.39001 0,-2.76301 -1.48778,-5.39851 -4.67588,-5.39851 -4.88842,0 -6.88629,3.95324 -7.4814,3.95324 -0.085,0 -0.21254,-0.34006 -0.21254,-0.63762 0,-3.06057 2.72051,-15.72795 2.72051,-16.49309 0,-0.46759 -0.34007,-0.76514 -0.80765,-0.76514 -0.25505,0 -1.02019,0.25505 -2.67801,0.46759 -1.95536,0.25504 -3.14558,0.21254 -3.14558,1.06269 0,0.59512 0.34006,0.59512 0.80765,0.59512 0.63762,0 1.1052,-0.085 1.74282,-0.085 0.85016,0 1.0627,0.29756 1.0627,0.5101 0,1.02019 -0.25505,2.50797 -0.63762,4.33581 -0.63762,3.14559 -1.14771,7.26886 -1.91286,11.68969 -0.59511,3.44315 -1.57279,7.86397 -1.57279,10.58448 z m 2.80553,-0.51009 c 0,-0.42508 0.46758,-4.97343 1.70031,-8.33156 1.36026,-3.6982 4.12328,-4.12328 5.14347,-4.12328 2.33794,0 4.16578,1.95537 4.16578,4.33582 0,4.88841 -3.91073,11.00956 -7.73645,11.00956 -2.63549,0 -3.27311,-1.44527 -3.27311,-2.89054 z"/>
	<path d="m 789.50617,765.3135 c 0,1.95536 1.70032,2.50797 3.52816,2.50797 3.99575,0 6.71626,-4.84591 8.71414,-9.90436 2.50797,-6.33369 3.52816,-12.19979 3.52816,-14.11265 0,-1.31774 -0.72264,-2.25292 -1.65781,-2.25292 -1.02019,0 -1.44527,0.80765 -1.44527,1.5728 0,1.14771 1.0627,1.99787 1.0627,3.2306 0,2.84804 -0.93518,7.39639 -1.53029,7.39639 -0.46759,0 -4.50585,-12.07226 -8.62912,-12.07226 -2.59299,0 -3.44314,3.69819 -3.44314,5.48352 0,0.72264 0.17003,0.93518 0.42507,0.93518 1.27524,0 0.38258,-3.1881 2.84804,-3.1881 2.25292,0 6.9288,10.96706 6.9288,13.3475 0,1.61531 -2.80553,7.05633 -5.27099,7.05633 -1.95537,0 -1.99787,-1.40277 -3.69819,-1.40277 -0.72264,0 -1.36026,0.68013 -1.36026,1.40277 z"/>
	<path d="m 500.72807,812.04678 c -8.84211,0 -12.72515,-6.17544 -12.72515,-11.36842 0,-5.1462 3.88304,-11.32164 12.72515,-11.32164 4.49123,0 7.57894,2.38597 7.57894,2.38597 l 3.74269,-7.48538 c 0,0 -4.30409,-3.55556 -12.67836,-3.55556 -10.94737,0 -20.91228,8.98246 -20.91228,20.07018 0,11.04094 10.0117,19.92982 20.91228,19.92982 8.37427,0 12.67836,-3.55555 12.67836,-3.55555 l -3.74269,-7.48538 c 0,0 -3.08771,2.38596 -7.57894,2.38596 z"/>
	<path d="m 518.72953,800.67836 c 0,11.27486 8.04678,20.02339 19.46199,20.02339 11.08772,0 19.4152,-8.74853 19.4152,-20.02339 0,-11.27485 -8.70175,-19.97661 -19.4152,-19.97661 -10.61988,0 -19.46199,8.70176 -19.46199,19.97661 z m 9.49708,0 c 0,-5.75438 3.18128,-11.50877 9.96491,-11.50877 6.83041,0 9.91813,5.75439 9.91813,11.50877 0,5.75439 -2.90059,11.50877 -9.91813,11.50877 -7.20468,0 -9.96491,-5.75438 -9.96491,-11.50877 z"/>
	<path d="m 575.28289,796.04678 0.0936,0 15.34503,23.95322 8.79532,0 0,-38.59649 -8.79532,0 0,23.95321 -0.0936,0 -15.34503,-23.95321 -8.79532,0 0,38.59649 8.79532,0 0,-23.95322 z"/>
	<path d="m 605.42178,789.12281 9.16959,0 0,30.87719 8.79532,0 0,-30.87719 9.16959,0 0,-7.7193 -27.1345,0 0,7.7193 z"/>
	<path d="m 640.72369,781.40351 0,38.59649 8.79532,0 0,-15.25146 11.78947,15.25146 11.18129,0 -13.28655,-15.95322 c 4.72514,-1.49707 7.90643,-5.38011 7.90643,-11.18128 0,-7.57895 -5.4269,-11.46199 -12.58479,-11.46199 l -13.80117,0 z m 8.79532,17.12281 0,-10.10527 1.02924,0 c 3.32163,0 7.29824,0.23392 7.29824,5.05263 0,4.81872 -3.97661,5.05264 -7.29824,5.05264 l -1.02924,0 z"/>
	<path d="m 688.05337,781.40351 -8.79532,0 0,38.59649 8.79532,0 0,-38.59649 z"/>
	<path d="m 698.69518,781.40351 0,38.59649 14.64328,0 c 8,0 12.63158,-4.39766 12.63158,-10.76023 0,-6.22223 -3.41521,-8.88889 -8.23392,-9.731 3.27485,-1.68421 4.81871,-4.72514 4.81871,-8.2807 0,-7.34503 -5.23976,-9.82456 -11.88304,-9.82456 l -11.97661,0 z m 8.79532,15.11111 0,-8.32749 0.70176,0 c 3.83626,0 5.84795,1.16959 5.84795,3.92983 0,3.22807 -2.05848,4.39766 -5.84795,4.39766 l -0.70176,0 z m 0,16.70175 0,-9.1228 2.76024,0 c 4.16374,0 6.45614,1.26315 6.45614,4.81871 0,3.04094 -2.2924,4.30409 -6.45614,4.30409 l -2.76024,0 z"/>
	<path d="m 764.51462,781.40351 -8.79533,0 0,22.31579 c 0,6.45614 -1.96491,8.32748 -6.269,8.32748 -4.30409,0 -6.26901,-1.87134 -6.26901,-8.32748 l 0,-22.31579 -8.79532,0 0,24.88889 c 0,9.54386 5.23977,14.40935 15.06433,14.40935 9.82456,0 15.06433,-4.86549 15.06433,-14.40935 l 0,-24.88889 z"/>
	<path d="m 769.9503,789.12281 9.16959,0 0,30.87719 8.79532,0 0,-30.87719 9.16959,0 0,-7.7193 -27.1345,0 0,7.7193 z"/>
	<path d="m 802.05922,800.67836 c 0,11.27486 8.04678,20.02339 19.46199,20.02339 11.08772,0 19.4152,-8.74853 19.4152,-20.02339 0,-11.27485 -8.70175,-19.97661 -19.4152,-19.97661 -10.61988,0 -19.46199,8.70176 -19.46199,19.97661 z m 9.49708,0 c 0,-5.75438 3.18128,-11.50877 9.96491,-11.50877 6.83041,0 9.91813,5.75439 9.91813,11.50877 0,5.75439 -2.90059,11.50877 -9.91813,11.50877 -7.20468,0 -9.96491,-5.75438 -9.96491,-11.50877 z"/>
	<path d="m 849.81725,781.40351 0,38.59649 8.79532,0 0,-15.25146 11.78948,15.25146 11.18128,0 -13.28655,-15.95322 c 4.72515,-1.49707 7.90644,-5.38011 7.90644,-11.18128 0,-7.57895 -5.4269,-11.46199 -12.5848,-11.46199 l -13.80117,0 z m 8.79532,17.12281 0,-10.10527 1.02924,0 c 3.32164,0 7.29825,0.23392 7.29825,5.05263 0,4.81872 -3.97661,5.05264 -7.29825,5.05264 l -1.02924,0 z"/>
	<path d="m 904.69371,797.21637 6.36257,-4.11696 0,26.90059 8.79533,0 0,-38.59649 -4.16375,0 -10.99415,7.11111 0,8.70175 z"/>
	<path d="m 576.56416,903.16684 c 0,0.42508 0.34007,0.5101 0.59512,0.5101 0.34006,0 1.02019,0.0425 1.91285,0.0425 0.76515,0 1.0202,0.17003 1.0202,0.89267 0,2.42295 -1.91286,9.05419 -1.91286,12.2848 0,1.82784 0.29755,3.52816 1.57279,3.52816 1.5728,0 3.91074,-2.50797 3.91074,-2.50797 0.46758,-0.5101 1.23273,-1.95537 1.23273,-2.46546 0,-0.29756 -0.17004,-0.46759 -0.42508,-0.46759 -0.59511,0 -1.19023,2.21041 -2.6355,2.21041 -0.42508,0 -0.85016,-0.5526 -0.85016,-1.14771 0,-0.5101 0,-0.42508 1.27524,-8.45909 0.34007,-2.1679 1.14772,-3.82571 1.14772,-4.93092 0,-0.29756 -0.29756,-0.46759 -0.59511,-0.46759 -2.42296,0 -3.14559,0.38257 -4.84591,0.38257 l -0.42508,0 c -0.46759,0 -0.97769,0.0425 -0.97769,0.59511 z m 4.50585,-8.37407 c 0,0.42508 1.14771,2.25293 1.91286,2.25293 0.38257,0 1.87035,-1.40277 1.87035,-2.25293 0,-0.76514 -0.80765,-2.25292 -1.65781,-2.25292 -0.76515,0 -2.1254,1.87035 -2.1254,2.25292 z"/>
	<path d="m 587.36119,906.35494 c 0,0.46759 0.085,0.80765 0.38257,0.80765 0.93518,0 1.40276,-2.38044 2.72051,-2.38044 0.42508,0 0.97768,0.85016 0.97768,2.33794 0,3.27311 -1.87035,9.86184 -1.87035,11.64718 0,1.23273 0.34007,1.31775 1.48778,1.31775 1.10521,0 1.44527,-0.17004 1.5728,-1.10521 0.085,-0.59511 -0.21254,-0.085 0.85016,-5.82359 1.02019,-5.48353 0.51009,-5.10096 2.33793,-7.69395 0.97769,-1.40276 1.78534,-1.87035 2.76302,-1.87035 2.76302,0 2.97556,2.80553 2.97556,3.48566 0,1.57279 -0.89267,7.26886 -0.89267,10.49947 0,1.48777 0.72264,2.678 1.5728,2.678 1.87035,0 5.61105,-2.97556 5.61105,-4.63337 0,-0.25505 -0.085,-0.5101 -0.38257,-0.5101 -0.63762,0 -0.80765,0.5101 -1.31775,1.14772 0,0 -0.97768,0.93517 -1.70032,0.93517 -0.46759,0 -0.80765,-0.34006 -0.80765,-1.53028 0,-1.44527 0.72264,-5.95112 0.72264,-8.92668 0,-2.678 -0.59512,-5.31349 -3.57067,-5.31349 -1.78534,0 -4.03826,1.53028 -5.18598,2.42295 -1.57279,1.19022 -1.87035,2.1254 -2.12539,2.1254 -0.38258,0 0.51009,-4.46334 -1.95537,-4.46334 -1.6153,0 -4.16578,3.1881 -4.16578,4.84591 z"/>
	<path d="m 609.90702,903.42189 c 0,1.19023 2.50797,0.25505 2.50797,1.14772 0,1.14771 -1.78534,8.034 -1.78534,11.94474 0,3.31562 1.5728,3.99575 2.72051,3.99575 2.6355,0 6.24867,-2.89055 6.24867,-3.99575 0,-0.59512 -0.34006,-0.59512 -0.46758,-0.59512 -0.68013,0 -1.65781,1.87036 -3.99575,1.87036 -0.17003,0 -1.74283,-0.085 -1.74283,-2.33794 0,-0.68013 0.97768,-6.20617 1.36026,-8.84166 0.25504,-1.74283 0.12752,-2.50797 1.36025,-2.50797 0.93518,0 2.76302,0.21254 3.44315,0.21254 0.76514,0 1.02019,-0.25505 1.02019,-1.23273 0,-0.5101 -0.21254,-0.80765 -1.10521,-0.80765 -0.46759,0 -0.80765,0.0425 -2.46546,0.0425 -1.40276,0 -1.48778,-0.0425 -1.48778,-0.29755 0,-0.63762 0.76514,-2.63549 0.76514,-3.1881 0,-0.38257 -0.21254,-0.51009 -0.42508,-0.51009 -0.68012,0 -0.76514,0.5526 -2.46546,2.33793 -1.87035,1.95537 -3.48565,1.91286 -3.48565,2.76302 z"/>
	<path d="m 622.01448,907.41764 c 0,0.59511 0.34007,0.72264 0.5101,0.72264 0.21254,0 0.34006,-0.12753 0.46758,-0.25505 0.25505,-0.29756 0.59512,-2.84804 2.33794,-2.84804 0.76515,0 1.44527,0.76515 1.44527,2.89055 0,3.18809 -1.82784,9.43677 -1.82784,11.13708 0,1.0202 0.85016,1.10521 1.27524,1.10521 l 0.21254,0 c 1.53029,0 1.44527,0 2.38045,-7.22635 l 0.21254,-1.40277 c 0.21254,-1.78533 1.27524,-7.35387 3.18809,-7.35387 1.53029,0 1.36026,1.78533 2.29543,1.78533 0.76515,0 0.85016,-1.31775 0.93518,-1.6153 0.12752,-0.46759 0.46759,-1.02019 0.46759,-1.5728 0,-0.59511 -0.46759,-1.31774 -1.5728,-1.31774 -3.14559,0 -5.27099,4.37832 -5.56854,4.37832 -0.085,0 -0.12753,-0.0425 -1.19022,-2.80553 -0.25505,-0.68013 -0.68013,-1.48778 -1.5728,-1.48778 -0.38257,0 -3.99575,1.02019 -3.99575,5.8661 z"/>
	<path d="m 635.60574,912.81615 c 0,5.18598 3.01806,7.60893 6.50372,7.60893 6.24867,0 9.73432,-6.07864 9.73432,-11.39214 0,-3.99575 -1.95536,-7.52391 -6.20616,-7.52391 -6.46121,0 -10.03188,6.03614 -10.03188,11.30712 z m 3.27311,0.0425 c 0,-1.74283 0.42508,-3.27311 0.85016,-4.76089 0.97769,-3.44315 3.27312,-5.3135 5.3135,-5.3135 1.95536,0 3.65568,1.74283 3.65568,5.73858 0,3.52816 -1.57279,10.62699 -6.12114,10.62699 -1.99788,0 -3.6982,-1.99787 -3.6982,-6.29118 z"/>
	<path d="m 653.89746,914.6865 c 0,3.1881 1.48777,5.65356 5.10095,5.65356 4.20829,0 6.3762,-4.76089 6.75877,-4.76089 0.59511,0 -0.38257,4.76089 2.59299,4.76089 2.76301,0 5.44102,-4.2933 5.44102,-5.18597 0,-0.17003 -0.12753,-0.38257 -0.46759,-0.38257 -0.68013,0 -1.65781,2.63549 -3.52816,2.63549 -0.97769,0 -1.10521,-0.89266 -1.10521,-1.82784 0,-1.27524 0.42508,-3.95324 0.89267,-7.18385 2.38044,-17.38575 2.80552,-18.74601 2.80552,-19.85122 0,-0.38257 -0.29755,-0.72263 -0.68013,-0.72263 -1.14771,0 -0.89266,0.085 -3.27311,0.68013 -1.19022,0.29755 -2.678,0.12752 -2.678,0.85015 0,0.29756 0.25505,0.46759 0.68013,0.46759 0.0425,0 1.02019,-0.0425 1.48778,-0.0425 0.63762,0 1.23273,0.42508 1.23273,1.0627 0,0.29756 -1.40277,11.47715 -1.53029,11.47715 -1.19022,0 -2.04038,-0.5526 -3.14559,-0.5526 -5.05845,0 -10.58448,6.33369 -10.58448,12.92242 z m 2.97555,-1.19022 c 0,-4.46334 3.48566,-10.83953 7.39639,-10.83953 1.14772,0 2.84803,0.5526 2.84803,1.70032 0,1.70032 -0.63762,9.18172 -2.33793,11.30712 -1.10521,1.40276 -2.76302,2.21041 -4.29331,2.21041 -2.59299,0 -3.61318,-1.91286 -3.61318,-4.37832 z"/>
	<path d="m 674.61478,907.50266 c 0,0.29755 0.17003,0.5526 0.42508,0.5526 0.21254,0 0.46759,-0.17003 0.63762,-0.59511 0.59511,-1.36026 1.53028,-2.46546 1.91286,-2.46546 0.5526,0 0.85015,0.42508 0.85015,0.89266 0,2.59299 -1.91285,7.26887 -1.91285,11.85973 0,1.23273 0.29755,2.72051 1.44527,2.72051 3.10308,0 6.24867,-3.86823 8.16153,-6.58874 1.27524,-1.78533 1.48778,-2.72051 1.74282,-2.72051 0.12753,0 0.21254,0.17003 0.21254,0.46759 0,0.38257 -0.76514,3.7407 -0.76514,6.46121 0,1.31775 0.34006,2.29543 1.27524,2.29543 3.99575,0 6.63124,-4.33581 6.63124,-5.356 0,-0.38257 -0.0425,-0.89267 -0.59511,-0.89267 -0.89267,0 -1.0627,3.14559 -3.65568,3.14559 -0.38258,0 -0.93518,-0.085 -0.93518,-1.02019 0,-2.16791 2.59299,-12.45484 2.59299,-13.60255 0,-0.63762 -0.72264,-0.93518 -1.40277,-0.93518 -0.42508,0 -1.1052,0.12753 -1.23273,0.68013 -0.97768,3.7407 -2.1679,7.65144 -4.93092,11.00956 -1.99788,2.38045 -3.48566,4.37833 -4.84591,4.37833 -0.29756,0 -0.76514,-0.42508 -0.76514,-1.14772 0,-3.23061 1.57279,-7.9915 1.57279,-11.7322 0,-0.51009 -0.085,-3.10308 -1.6153,-3.10308 -2.84804,0 -4.8034,3.91073 -4.8034,5.69607 z"/>
	<path d="m 697.20909,913.66631 c 0,5.69607 3.31562,6.84379 6.4187,6.84379 4.71838,0 7.73645,-3.61318 7.73645,-4.20829 0,-0.25505 -0.21254,-0.55261 -0.5526,-0.55261 -0.76515,0 -2.21042,2.29543 -5.69607,2.29543 -3.31562,0 -5.01594,-2.1679 -5.01594,-6.50372 0,-3.86822 2.29543,-6.46121 2.80552,-6.92879 1.14772,-1.0202 2.38045,-1.48778 2.76302,-1.48778 2.97556,0 3.35813,3.06057 5.18597,3.06057 0.76515,0 1.40277,-0.80765 1.40277,-1.65781 0,-2.42295 -3.82572,-3.06057 -4.2508,-3.06057 -6.03613,0 -10.79702,6.37619 -10.79702,12.19978 z"/>
	<path d="m 714.84856,903.42189 c 0,1.19023 2.50797,0.25505 2.50797,1.14772 0,1.14771 -1.78533,8.034 -1.78533,11.94474 0,3.31562 1.57279,3.99575 2.72051,3.99575 2.63549,0 6.24867,-2.89055 6.24867,-3.99575 0,-0.59512 -0.34007,-0.59512 -0.46759,-0.59512 -0.68013,0 -1.65781,1.87036 -3.99575,1.87036 -0.17003,0 -1.74283,-0.085 -1.74283,-2.33794 0,-0.68013 0.97769,-6.20617 1.36026,-8.84166 0.25505,-1.74283 0.12752,-2.50797 1.36025,-2.50797 0.93518,0 2.76302,0.21254 3.44315,0.21254 0.76514,0 1.02019,-0.25505 1.02019,-1.23273 0,-0.5101 -0.21254,-0.80765 -1.10521,-0.80765 -0.46758,0 -0.80765,0.0425 -2.46546,0.0425 -1.40276,0 -1.48778,-0.0425 -1.48778,-0.29755 0,-0.63762 0.76515,-2.63549 0.76515,-3.1881 0,-0.38257 -0.21254,-0.51009 -0.42508,-0.51009 -0.68013,0 -0.76515,0.5526 -2.46547,2.33793 -1.87035,1.95537 -3.48565,1.91286 -3.48565,2.76302 z"/>
	<path d="m 727.16856,903.16684 c 0,0.42508 0.34007,0.5101 0.59512,0.5101 0.34006,0 1.02019,0.0425 1.91286,0.0425 0.76514,0 1.02019,0.17003 1.02019,0.89267 0,2.42295 -1.91286,9.05419 -1.91286,12.2848 0,1.82784 0.29755,3.52816 1.57279,3.52816 1.5728,0 3.91074,-2.50797 3.91074,-2.50797 0.46758,-0.5101 1.23273,-1.95537 1.23273,-2.46546 0,-0.29756 -0.17003,-0.46759 -0.42508,-0.46759 -0.59511,0 -1.19023,2.21041 -2.6355,2.21041 -0.42508,0 -0.85016,-0.5526 -0.85016,-1.14771 0,-0.5101 0,-0.42508 1.27524,-8.45909 0.34007,-2.1679 1.14772,-3.82571 1.14772,-4.93092 0,-0.29756 -0.29756,-0.46759 -0.59511,-0.46759 -2.42296,0 -3.14559,0.38257 -4.84591,0.38257 l -0.42508,0 c -0.46759,0 -0.97769,0.0425 -0.97769,0.59511 z m 4.50585,-8.37407 c 0,0.42508 1.14771,2.25293 1.91286,2.25293 0.38257,0 1.87035,-1.40277 1.87035,-2.25293 0,-0.76514 -0.80765,-2.25292 -1.65781,-2.25292 -0.76515,0 -2.1254,1.87035 -2.1254,2.25292 z"/>
	<path d="m 738.30566,912.81615 c 0,5.18598 3.01807,7.60893 6.50372,7.60893 6.24867,0 9.73432,-6.07864 9.73432,-11.39214 0,-3.99575 -1.95536,-7.52391 -6.20616,-7.52391 -6.46121,0 -10.03188,6.03614 -10.03188,11.30712 z m 3.27311,0.0425 c 0,-1.74283 0.42508,-3.27311 0.85016,-4.76089 0.97769,-3.44315 3.27312,-5.3135 5.3135,-5.3135 1.95537,0 3.65568,1.74283 3.65568,5.73858 0,3.52816 -1.57279,10.62699 -6.12114,10.62699 -1.99788,0 -3.6982,-1.99787 -3.6982,-6.29118 z"/>
	<path d="m 756.64585,906.35494 c 0,0.46759 0.085,0.80765 0.38257,0.80765 0.93517,0 1.40276,-2.38044 2.72051,-2.38044 0.42508,0 0.97768,0.85016 0.97768,2.33794 0,3.27311 -1.87035,9.86184 -1.87035,11.64718 0,1.23273 0.34007,1.31775 1.48778,1.31775 1.10521,0 1.44527,-0.17004 1.5728,-1.10521 0.085,-0.59511 -0.21254,-0.085 0.85016,-5.82359 1.02019,-5.48353 0.51009,-5.10096 2.33793,-7.69395 0.97769,-1.40276 1.78534,-1.87035 2.76302,-1.87035 2.76302,0 2.97556,2.80553 2.97556,3.48566 0,1.57279 -0.89267,7.26886 -0.89267,10.49947 0,1.48777 0.72264,2.678 1.5728,2.678 1.87035,0 5.61105,-2.97556 5.61105,-4.63337 0,-0.25505 -0.085,-0.5101 -0.38257,-0.5101 -0.63762,0 -0.80765,0.5101 -1.31775,1.14772 0,0 -0.97768,0.93517 -1.70032,0.93517 -0.46759,0 -0.80765,-0.34006 -0.80765,-1.53028 0,-1.44527 0.72264,-5.95112 0.72264,-8.92668 0,-2.678 -0.59512,-5.31349 -3.57067,-5.31349 -1.78534,0 -4.03826,1.53028 -5.18598,2.42295 -1.57279,1.19022 -1.87035,2.1254 -2.12539,2.1254 -0.38258,0 0.51009,-4.46334 -1.95537,-4.46334 -1.6153,0 -4.16578,3.1881 -4.16578,4.84591 z"/>
	<path d="m 788.87885,916.98193 c 0,2.46547 2.678,3.57067 5.18597,3.57067 6.58874,0 11.60468,-7.60892 11.60468,-13.39001 0,-2.76301 -1.48778,-5.39851 -4.67588,-5.39851 -4.88842,0 -6.88629,3.95324 -7.4814,3.95324 -0.085,0 -0.21254,-0.34006 -0.21254,-0.63762 0,-3.06057 2.72051,-15.72795 2.72051,-16.49309 0,-0.46759 -0.34006,-0.76514 -0.80765,-0.76514 -0.25505,0 -1.02019,0.25505 -2.678,0.46759 -1.95537,0.25504 -3.14559,0.21254 -3.14559,1.06269 0,0.59512 0.34006,0.59512 0.80765,0.59512 0.63762,0 1.1052,-0.085 1.74282,-0.085 0.85016,0 1.0627,0.29756 1.0627,0.5101 0,1.02019 -0.25504,2.50797 -0.63762,4.33581 -0.63762,3.14559 -1.14771,7.26886 -1.91285,11.68969 -0.59512,3.44315 -1.5728,7.86397 -1.5728,10.58448 z m 2.80553,-0.51009 c 0,-0.42508 0.46758,-4.97343 1.70031,-8.33156 1.36026,-3.6982 4.12328,-4.12328 5.14347,-4.12328 2.33794,0 4.16578,1.95537 4.16578,4.33582 0,4.88841 -3.91073,11.00956 -7.73645,11.00956 -2.63549,0 -3.27311,-1.44527 -3.27311,-2.89054 z"/>
	<path d="m 807.31469,925.3135 c 0,1.95536 1.70032,2.50797 3.52816,2.50797 3.99575,0 6.71626,-4.84591 8.71414,-9.90436 2.50797,-6.33369 3.52816,-12.19979 3.52816,-14.11265 0,-1.31774 -0.72264,-2.25292 -1.65781,-2.25292 -1.02019,0 -1.44527,0.80765 -1.44527,1.5728 0,1.14771 1.0627,1.99787 1.0627,3.2306 0,2.84804 -0.93518,7.39639 -1.53029,7.39639 -0.46759,0 -4.50585,-12.07226 -8.62912,-12.07226 -2.59298,0 -3.44314,3.69819 -3.44314,5.48352 0,0.72264 0.17003,0.93518 0.42508,0.93518 1.27523,0 0.38257,-3.1881 2.84803,-3.1881 2.25292,0 6.9288,10.96706 6.9288,13.3475 0,1.61531 -2.80553,7.05633 -5.27099,7.05633 -1.95537,0 -1.99787,-1.40277 -3.69819,-1.40277 -0.72264,0 -1.36026,0.68013 -1.36026,1.40277 z"/>
	<path d="m 492.73282,972.04678 c -8.84211,0 -12.72515,-6.17544 -12.72515,-11.36842 0,-5.1462 3.88304,-11.32164 12.72515,-11.32164 4.49123,0 7.57895,2.38597 7.57895,2.38597 l 3.74269,-7.48538 c 0,0 -4.3041,-3.55556 -12.67837,-3.55556 -10.94737,0 -20.91228,8.98246 -20.91228,20.07018 0,11.04094 10.0117,19.92982 20.91228,19.92982 8.37427,0 12.67837,-3.55555 12.67837,-3.55555 l -3.74269,-7.48538 c 0,0 -3.08772,2.38596 -7.57895,2.38596 z"/>
	<path d="m 510.73428,960.67836 c 0,11.27486 8.04679,20.02339 19.46199,20.02339 11.08772,0 19.41521,-8.74853 19.41521,-20.02339 0,-11.27485 -8.70176,-19.97661 -19.41521,-19.97661 -10.61988,0 -19.46199,8.70176 -19.46199,19.97661 z m 9.49708,0 c 0,-5.75438 3.18128,-11.50877 9.96491,-11.50877 6.83041,0 9.91813,5.75439 9.91813,11.50877 0,5.75439 -2.90059,11.50877 -9.91813,11.50877 -7.20468,0 -9.96491,-5.75438 -9.96491,-11.50877 z"/>
	<path d="m 567.28764,956.04678 0.0936,0 15.34503,23.95322 8.79532,0 0,-38.59649 -8.79532,0 0,23.95321 -0.0936,0 -15.34503,-23.95321 -8.79532,0 0,38.59649 8.79532,0 0,-23.95322 z"/>
	<path d="m 597.42653,949.12281 9.16959,0 0,30.87719 8.79532,0 0,-30.87719 9.1696,0 0,-7.7193 -27.13451,0 0,7.7193 z"/>
	<path d="m 632.72844,941.40351 0,38.59649 8.79532,0 0,-15.25146 11.78947,15.25146 11.18129,0 -13.28655,-15.95322 c 4.72515,-1.49707 7.90643,-5.38011 7.90643,-11.18128 0,-7.57895 -5.4269,-11.46199 -12.58479,-11.46199 l -13.80117,0 z m 8.79532,17.12281 0,-10.10527 1.02924,0 c 3.32164,0 7.29824,0.23392 7.29824,5.05263 0,4.81872 -3.9766,5.05264 -7.29824,5.05264 l -1.02924,0 z"/>
	<path d="m 680.05812,941.40351 -8.79532,0 0,38.59649 8.79532,0 0,-38.59649 z"/>
	<path d="m 690.69993,941.40351 0,38.59649 14.64328,0 c 8,0 12.63158,-4.39766 12.63158,-10.76023 0,-6.22223 -3.41521,-8.88889 -8.23392,-9.731 3.27485,-1.68421 4.81871,-4.72514 4.81871,-8.2807 0,-7.34503 -5.23976,-9.82456 -11.88304,-9.82456 l -11.97661,0 z m 8.79533,15.11111 0,-8.32749 0.70175,0 c 3.83626,0 5.84795,1.16959 5.84795,3.92983 0,3.22807 -2.05848,4.39766 -5.84795,4.39766 l -0.70175,0 z m 0,16.70175 0,-9.1228 2.76023,0 c 4.16374,0 6.45614,1.26315 6.45614,4.81871 0,3.04094 -2.2924,4.30409 -6.45614,4.30409 l -2.76023,0 z"/>
	<path d="m 756.51937,941.40351 -8.79532,0 0,22.31579 c 0,6.45614 -1.96492,8.32748 -6.26901,8.32748 -4.30409,0 -6.26901,-1.87134 -6.26901,-8.32748 l 0,-22.31579 -8.79532,0 0,24.88889 c 0,9.54386 5.23977,14.40935 15.06433,14.40935 9.82456,0 15.06433,-4.86549 15.06433,-14.40935 l 0,-24.88889 z"/>
	<path d="m 761.95505,949.12281 9.16959,0 0,30.87719 8.79532,0 0,-30.87719 9.16959,0 0,-7.7193 -27.1345,0 0,7.7193 z"/>
	<path d="m 794.06397,960.67836 c 0,11.27486 8.04678,20.02339 19.46199,20.02339 11.08772,0 19.4152,-8.74853 19.4152,-20.02339 0,-11.27485 -8.70175,-19.97661 -19.4152,-19.97661 -10.61988,0 -19.46199,8.70176 -19.46199,19.97661 z m 9.49708,0 c 0,-5.75438 3.18128,-11.50877 9.96491,-11.50877 6.83041,0 9.91813,5.75439 9.91813,11.50877 0,5.75439 -2.90059,11.50877 -9.91813,11.50877 -7.20468,0 -9.96491,-5.75438 -9.96491,-11.50877 z"/>
	<path d="m 841.822,941.40351 0,38.59649 8.79533,0 0,-15.25146 L 862.4068,980 l 11.18129,0 -13.28655,-15.95322 c 4.72514,-1.49707 7.90643,-5.38011 7.90643,-11.18128 0,-7.57895 -5.4269,-11.46199 -12.5848,-11.46199 l -13.80117,0 z m 8.79533,17.12281 0,-10.10527 1.02924,0 c 3.32163,0 7.29824,0.23392 7.29824,5.05263 0,4.81872 -3.97661,5.05264 -7.29824,5.05264 l -1.02924,0 z"/>
	<path d="m 912.32419,948.14035 c 5.1462,0 5.47369,4.72515 5.47369,6.12866 0,7.11111 -19.88304,23.53216 -19.88304,23.53216 l 0,2.19883 30.08187,0 0,-7.7193 -14.31579,0 c 0,0 13.61403,-8.98245 13.61403,-18.01169 0,-4.8655 -1.73099,-13.56726 -14.97076,-13.56726 -10.47953,0 -14.22222,11.22807 -14.22222,11.22807 l 7.34503,3.55556 c 0,0 2.66667,-7.34503 6.87719,-7.34503 z"/>
</svg>
